<?xml version="1.0" encoding="UTF-8"?>
<svg id="Layer_2" data-name="Layer 2" xmlns="http://www.w3.org/2000/svg" viewBox="0 0 18.38 18.38">
  <defs>
    <style>
      .cls-1 {
        fill: #fff;
      }

      .cls-2 {
        fill: #0063d3;
        fill-rule: evenodd;
      }
    </style>
  </defs>
  <g id="Layer_1-2" data-name="Layer 1">
    <g>
      <circle class="cls-1" cx="9.18" cy="9.18" r="7.07"/>
      <path class="cls-2" d="M9.19,0C4.11,0,0,4.11,0,9.19s4.11,9.19,9.19,9.19,9.19-4.11,9.19-9.19S14.26,0,9.19,0ZM13.35,7.56l-4.64,4.64c-.38.38-1.01.38-1.39,0-.01-.01-.02-.02-.03-.03l-2.25-2.25c-.38-.38-.38-1.01,0-1.39.38-.38,1.01-.38,1.39,0l1.59,1.59,3.94-3.94c.38-.38,1.01-.38,1.39,0,.38.38.38,1.01,0,1.39Z"/>
    </g>
  </g>
</svg>